<svg xmlns="http://www.w3.org/2000/svg" viewBox="0 0 750.721 169.086"><path d="M163.579 32.256V.553h33.685v31.703h-33.685zM218.403 159.071V50.751h33.463v108.32h-33.463zM0 .553h33.464v158.518H0V.553zM109.202 159.071V.553h33.46v158.518h-33.46zM54.599 108.874V.553h33.464v108.321H54.599zM218.181 32.256V.553h88.285v31.703h-88.285z" style="fill:#ae002c;fill-rule:evenodd"/><path d="M1093.9 360.74v38.166h-9.137l.6-27.191.108-3.841-.325 1.355c-.487 2.159-.541 2.431-.976 4.053l-7.189 25.624h-8.216l-6.919-24.543-1.677-6.812c.165 3.029.165 3.675.324 7.3l.488 24.058h-9.246V360.74h13.947l5.839 21.409 1.352 6.106c.544-2.647.595-2.92 1.029-4.7l6.108-22.812ZM1101.2 378.688c.158-1.947.431-4.271 2.972-6.273 2.593-2.052 5.945-2.486 9.244-2.486 3.458 0 11.836.813 11.836 8.109v16.434c0 3.027.164 3.46.813 4.434h-8.165v-2.6c-2.109 1.568-4.486 3.351-8.651 3.351-6.485 0-9.242-4.648-9.242-8.592 0-4.542 3.624-7.136 5.944-8.109 2.27-.973 7.623-1.947 11.139-2.6v-1.512c-.11-1.3-.218-3.461-3.188-3.461-3.677 0-4.165 2.27-4.382 3.3Zm10.54 8.486c-1.4.542-3.57 1.352-3.57 3.514a3.02 3.02 0 0 0 3.136 2.867 5.455 5.455 0 0 0 2.867-.92c2.756-1.733 2.862-4.325 2.919-7.243l-5.352 1.782ZM1134.281 389.39c2.273 2.218 5.08 3.894 8.219 3.894 2 0 5.028-.649 5.028-2.758a1.719 1.719 0 0 0-1.081-1.62 17.935 17.935 0 0 0-4.811-1.083 32.084 32.084 0 0 1-3.788-.864 10.61 10.61 0 0 1-4.7-2.433 7.629 7.629 0 0 1-2.11-5.3c0-4.648 4-9.459 11.892-9.459a20.658 20.658 0 0 1 12.6 4.218l-5.134 4.754a11.836 11.836 0 0 0-7.084-2.809c-3.243 0-4 1.3-4 2.107 0 1.624 1.784 1.947 4.483 2.433 5.68 1.027 12.273 2.539 12.273 9.247 0 6.646-6.7 9.89-13.353 9.89a18.588 18.588 0 0 1-13.674-5.458l5.24-4.76ZM1162.448 389.39c2.27 2.218 5.082 3.894 8.215 3.894 2 0 5.027-.649 5.027-2.758a1.714 1.714 0 0 0-1.079-1.62 17.923 17.923 0 0 0-4.813-1.083 32.051 32.051 0 0 1-3.783-.864 10.6 10.6 0 0 1-4.7-2.433 7.615 7.615 0 0 1-2.109-5.3c0-4.648 4-9.459 11.894-9.459a20.664 20.664 0 0 1 12.6 4.218l-5.138 4.754a11.827 11.827 0 0 0-7.082-2.809c-3.242 0-4 1.3-4 2.107 0 1.624 1.782 1.947 4.482 2.433 5.678 1.027 12.273 2.539 12.273 9.247 0 6.646-6.7 9.89-13.352 9.89a18.6 18.6 0 0 1-13.678-5.458l5.245-4.76ZM1189.044 378.688c.161-1.947.431-4.271 2.975-6.273 2.589-2.052 5.945-2.486 9.244-2.486 3.459 0 11.837.813 11.837 8.109v16.434c0 3.027.162 3.46.812 4.434h-8.162v-2.6c-2.109 1.568-4.487 3.351-8.651 3.351-6.484 0-9.244-4.648-9.244-8.592 0-4.542 3.622-7.136 5.95-8.109 2.266-.973 7.619-1.947 11.132-2.6v-1.512c-.107-1.3-.215-3.461-3.19-3.461-3.672 0-4.164 2.27-4.38 3.3Zm10.545 8.486c-1.409.542-3.572 1.352-3.572 3.514a3.019 3.019 0 0 0 3.136 2.867 5.461 5.461 0 0 0 2.868-.92c2.753-1.733 2.863-4.325 2.916-7.243l-5.348 1.782ZM1245.32 392.256a16.105 16.105 0 0 1-4.433 5.027 14.009 14.009 0 0 1-8.106 2.541c-5.409 0-14-3.242-14-14.757 0-8.218 4.756-15.138 14.165-15.138a13.5 13.5 0 0 1 12.054 6.758l-6.163 3.514a6.867 6.867 0 0 0-2.381-2.973 5.533 5.533 0 0 0-3.136-.973c-4.485 0-6 5.135-6 8.541 0 3.73 1.837 8.433 6.269 8.433a5.555 5.555 0 0 0 4.219-1.945 6 6 0 0 0 1.242-2.27l6.271 3.242ZM1254.956 360.686v12.975a10.821 10.821 0 0 1 8.109-3.732 9.447 9.447 0 0 1 6 2c2.488 2.109 2.921 4.756 2.921 8.432v18.543h-8.271v-14.76a13.744 13.744 0 0 0-.382-4.322 3.915 3.915 0 0 0-3.891-2.814 4.319 4.319 0 0 0-3.406 1.625c-1.079 1.458-1.079 3.783-1.079 6.214v14.057h-8.328v-38.22ZM1296.149 370.687h8.323v28.219h-8.323v-2.7a7.7 7.7 0 0 1-2.814 2.22 11.676 11.676 0 0 1-5.351 1.294c-1.837 0-5.245-.269-7.192-2.973-1.454-2.053-1.726-3.731-1.726-8.327v-17.733h8.378V388.2a5.594 5.594 0 0 0 .65 3.352 4.105 4.105 0 0 0 3.294 1.4 5.584 5.584 0 0 0 2.867-.7c1.786-1.08 1.839-2.488 1.894-4v-17.565ZM1313.391 389.39c2.271 2.218 5.082 3.894 8.218 3.894 2 0 5.026-.649 5.026-2.758a1.711 1.711 0 0 0-1.083-1.62 17.859 17.859 0 0 0-4.808-1.083 32.1 32.1 0 0 1-3.786-.864 10.6 10.6 0 0 1-4.7-2.433 7.615 7.615 0 0 1-2.109-5.3c0-4.648 4-9.459 11.891-9.459a20.668 20.668 0 0 1 12.6 4.218l-5.137 4.754a11.839 11.839 0 0 0-7.085-2.809c-3.243 0-4 1.3-4 2.107 0 1.624 1.785 1.947 4.486 2.433 5.678 1.027 12.273 2.539 12.273 9.247 0 6.646-6.7 9.89-13.354 9.89a18.6 18.6 0 0 1-13.679-5.458l5.245-4.76ZM1366.478 391.715a21.994 21.994 0 0 1-3.406 4.218 15.5 15.5 0 0 1-10.653 4c-8.378 0-14.27-5.353-14.27-14.6 0-6.81 3.353-15.567 14.491-15.567a13.679 13.679 0 0 1 10.159 4.057c3.679 3.943 3.894 9.459 4 12.647h-20.159c-.058 3.514 1.942 7.029 6.432 7.029 4.543 0 6.11-2.975 7.136-4.975l6.27 3.189Zm-8.271-10.433a6.72 6.72 0 0 0-1.569-4 5.858 5.858 0 0 0-4.057-1.569 5.725 5.725 0 0 0-4.213 1.838 7.4 7.4 0 0 0-1.676 3.731ZM1372.641 362.521h8.271v8.815h5.46v5.08h-5.513v12.7c-.058 1.73-.058 3.191 2.163 3.191l2.971-.108v6.484a26.378 26.378 0 0 1-4.378.433c-2.868 0-6-.161-7.783-2.757-1.14-1.674-1.191-3.676-1.191-6.378v-13.616h-4.108v-5.084h4.108v-8.76Z" style="fill:#ae002c;fill-rule:evenodd" transform="translate(-679.166 -360.686)"/><path d="M1388.533 362.521h8.272v8.815h5.461v5.08h-5.517v12.7c-.049 1.73-.049 3.191 2.163 3.191l2.975-.108v6.484a26.412 26.412 0 0 1-4.382.433c-2.863 0-6-.161-7.783-2.757-1.135-1.674-1.189-3.676-1.189-6.378v-13.616h-4.109v-5.084h4.109v-8.76ZM1408.1 389.39c2.27 2.218 5.083 3.894 8.216 3.894 2 0 5.03-.649 5.03-2.758a1.712 1.712 0 0 0-1.084-1.62 17.9 17.9 0 0 0-4.808-1.083 31.844 31.844 0 0 1-3.787-.864 10.612 10.612 0 0 1-4.7-2.433 7.612 7.612 0 0 1-2.1-5.3c0-4.648 4-9.459 11.887-9.459a20.663 20.663 0 0 1 12.6 4.218l-5.138 4.754a11.822 11.822 0 0 0-7.081-2.809c-3.242 0-4 1.3-4 2.107 0 1.624 1.781 1.947 4.482 2.433 5.681 1.027 12.274 2.539 12.274 9.247 0 6.646-6.7 9.89-13.352 9.89a18.607 18.607 0 0 1-13.679-5.458l5.245-4.76Z" style="fill:#ae002c;fill-rule:evenodd" transform="translate(-679.166 -360.686)"/><path d="M382.414 60.14v38.165h-9.513V60.14h9.513z" style="fill:#ae002c;fill-rule:evenodd"/><path d="M1077.527 433.314a8.105 8.105 0 0 1 2.813-2.218 13.7 13.7 0 0 1 5.132-1.027 10.721 10.721 0 0 1 5.031 1.136c2.971 1.567 3.729 4.108 3.729 8.486v19.3h-8.272V443.1c0-2.541-.052-3.46-.378-4.216a3.781 3.781 0 0 0-3.73-2.163c-4.377 0-4.377 3.515-4.377 7.029v15.24h-8.326v-28.164h8.378v2.488ZM1103.148 449.477c2.272 2.217 5.084 3.892 8.219 3.892 2 0 5.028-.65 5.028-2.757a1.723 1.723 0 0 0-1.082-1.622 17.958 17.958 0 0 0-4.81-1.081 32.361 32.361 0 0 1-3.783-.864 10.609 10.609 0 0 1-4.7-2.433 7.6 7.6 0 0 1-2.109-5.3c0-4.647 4-9.459 11.893-9.459a20.659 20.659 0 0 1 12.6 4.216l-5.134 4.757a11.836 11.836 0 0 0-7.083-2.811c-3.242 0-4 1.3-4 2.109 0 1.621 1.784 1.945 4.486 2.431 5.677 1.028 12.271 2.541 12.271 9.246 0 6.648-6.7 9.893-13.352 9.893a18.591 18.591 0 0 1-13.676-5.461l5.24-4.757ZM1130.884 422.608h8.27v8.813h5.461v5.079h-5.515v12.708c-.053 1.728-.053 3.188 2.163 3.188l2.975-.109v6.488a26.9 26.9 0 0 1-4.38.432c-2.867 0-6-.164-7.785-2.757-1.137-1.673-1.189-3.678-1.189-6.378v-13.623h-4.11v-5.082h4.11v-8.759ZM1149.1 420.773h8.218v6.427h-8.218v-6.431Zm0 9.943h8.218v28.274h-8.218v-28.274ZM1165.8 422.608h8.271v8.813h5.461v5.079h-5.515v12.708c-.051 1.728-.051 3.188 2.162 3.188l2.977-.109v6.488a26.88 26.88 0 0 1-4.38.432c-2.866 0-6-.164-7.786-2.757-1.133-1.673-1.19-3.678-1.19-6.378v-13.623h-4.1v-5.082h4.105v-8.759ZM1200.779 430.77h8.327v28.22h-8.327v-2.7a7.65 7.65 0 0 1-2.812 2.217 11.63 11.63 0 0 1-5.347 1.3c-1.84 0-5.246-.271-7.194-2.972-1.458-2.053-1.729-3.733-1.729-8.327V430.77h8.38v17.519a5.611 5.611 0 0 0 .647 3.351 4.127 4.127 0 0 0 3.3 1.405 5.558 5.558 0 0 0 2.865-.705c1.781-1.08 1.841-2.486 1.891-4v-17.57ZM1217.592 422.608h8.271v8.813h5.46v5.079h-5.513v12.708c-.056 1.728-.056 3.188 2.163 3.188l2.971-.109v6.488a26.815 26.815 0 0 1-4.378.432c-2.863 0-6-.164-7.784-2.757-1.137-1.673-1.19-3.678-1.19-6.378v-13.623h-4.108v-5.082h4.108v-8.759ZM1262.083 451.8a22.058 22.058 0 0 1-3.406 4.217 15.5 15.5 0 0 1-10.649 4c-8.382 0-14.274-5.354-14.274-14.6 0-6.811 3.354-15.566 14.49-15.566a13.707 13.707 0 0 1 10.163 4.052c3.676 3.947 3.89 9.464 4 12.65h-20.163c-.052 3.516 1.947 7.029 6.432 7.029 4.542 0 6.11-2.973 7.139-4.972l6.27 3.188Zm-8.271-10.432a6.729 6.729 0 0 0-1.566-4 5.87 5.87 0 0 0-4.056-1.566 5.732 5.732 0 0 0-4.217 1.836 7.414 7.414 0 0 0-1.679 3.733ZM1310.248 444.828c0 7.134-4.107 14.974-15.136 14.974-7.946 0-15.188-4.541-15.188-14.974 0-8.651 5.461-15.515 16.271-14.92 11.514.647 14.053 9.783 14.053 14.92Zm-20.542-5.568a10.23 10.23 0 0 0-1.407 5.515c0 4.485 2.165 8.431 6.813 8.431 4.488 0 6.7-3.622 6.7-8.055 0-3.136-.758-5.568-2.329-7.08a6.04 6.04 0 0 0-4.861-1.571 5.616 5.616 0 0 0-4.921 2.76ZM1317.007 427.961a8.16 8.16 0 0 1 1.189-4.813c1.027-1.4 3.352-2.865 7.244-2.865a37.373 37.373 0 0 1 4.975.49v6.215h-2c-3.135 0-3.3.647-3.244 4.433h5.571v5.079h-5.518v22.49h-8.27V436.5h-4.432v-5.079h4.487v-3.46Z" style="fill:#ae002c;fill-rule:evenodd" transform="translate(-679.166 -360.686)"/><path d="M362.442 120.757h29.409v7.57h-9.894v30.649h-9.568v-30.649h-9.947v-7.57z" style="fill:#ae002c;fill-rule:evenodd"/><path d="M1097.248 512.473a22.128 22.128 0 0 1-3.4 4.217 15.5 15.5 0 0 1-10.651 4c-8.38 0-14.273-5.357-14.273-14.6 0-6.814 3.352-15.571 14.486-15.571a13.7 13.7 0 0 1 10.167 4.057c3.676 3.943 3.893 9.459 4 12.644h-20.166c-.054 3.519 1.948 7.028 6.435 7.028 4.541 0 6.107-2.97 7.135-4.968l6.272 3.187Zm-8.271-10.433a6.708 6.708 0 0 0-1.569-4 5.844 5.844 0 0 0-4.057-1.571 5.735 5.735 0 0 0-4.215 1.837 7.427 7.427 0 0 0-1.675 3.733ZM1127.034 513.012a16.075 16.075 0 0 1-4.432 5.029 14.059 14.059 0 0 1-8.109 2.54c-5.407 0-14-3.244-14-14.758 0-8.218 4.756-15.137 14.166-15.137a13.494 13.494 0 0 1 12.055 6.758l-6.162 3.514a6.89 6.89 0 0 0-2.379-2.973 5.551 5.551 0 0 0-3.138-.976c-4.487 0-6 5.138-6 8.544 0 3.733 1.838 8.432 6.269 8.432a5.553 5.553 0 0 0 4.218-1.943 5.973 5.973 0 0 0 1.243-2.275l6.272 3.245ZM1136.668 481.443v12.974a10.825 10.825 0 0 1 8.109-3.731 9.45 9.45 0 0 1 6 2c2.489 2.109 2.92 4.756 2.92 8.431v18.543h-8.274V504.9a13.686 13.686 0 0 0-.377-4.323 3.92 3.92 0 0 0-3.893-2.813 4.316 4.316 0 0 0-3.4 1.624c-1.081 1.458-1.081 3.784-1.081 6.217v14.054h-8.328v-38.216ZM1169.483 493.985a8.116 8.116 0 0 1 2.809-2.217 13.744 13.744 0 0 1 5.138-1.028 10.715 10.715 0 0 1 5.026 1.135c2.972 1.571 3.729 4.111 3.729 8.487v19.3h-8.27v-15.9c0-2.54-.054-3.458-.379-4.214a3.785 3.785 0 0 0-3.729-2.162c-4.381 0-4.381 3.512-4.381 7.028v15.243h-8.326V491.5h8.38v2.486ZM1222.025 505.5c0 7.134-4.106 14.973-15.131 14.973-7.951 0-15.195-4.541-15.195-14.973 0-8.65 5.461-15.516 16.272-14.919 11.513.647 14.054 9.781 14.054 14.919Zm-20.538-5.57a10.213 10.213 0 0 0-1.407 5.515c0 4.488 2.161 8.433 6.814 8.433 4.483 0 6.7-3.622 6.7-8.055 0-3.137-.758-5.57-2.324-7.082a6.039 6.039 0 0 0-4.866-1.568 5.607 5.607 0 0 0-4.916 2.757Z" style="fill:#ae002c;fill-rule:evenodd" transform="translate(-679.166 -360.686)"/><path d="M556.59 120.811v38.165h-8.325v-38.165h8.325z" style="fill:#ae002c;fill-rule:evenodd"/><path d="M1271.6 505.5c0 7.134-4.109 14.973-15.134 14.973-7.948 0-15.194-4.541-15.194-14.973 0-8.65 5.461-15.516 16.273-14.919 11.516.647 14.055 9.781 14.055 14.919Zm-20.541-5.57a10.222 10.222 0 0 0-1.408 5.515c0 4.488 2.165 8.433 6.815 8.433 4.486 0 6.7-3.622 6.7-8.055 0-3.137-.756-5.57-2.326-7.082a6.04 6.04 0 0 0-4.864-1.568 5.609 5.609 0 0 0-4.918 2.757ZM1294.144 515.932a11.994 11.994 0 0 1-7.463 2.378 11.472 11.472 0 0 1-6.432-1.839c-3.783-2.427-5.245-6.807-5.245-11.672 0-5.681 2.652-13.841 12-13.841a9.827 9.827 0 0 1 7.568 3.08v-2.647h7.784v27.135c-.107 3.083-.216 6.7-4.325 9.083-2.867 1.731-7.081 2.162-9.621 2.162-5.624 0-9.3-1.943-10.813-3.514-2.218-2.216-2.164-5.079-2.164-6.595h8.594c.11 1.242.219 3.028 2.436 4.055a5.681 5.681 0 0 0 2.649.539c5.029 0 5.029-2.971 5.029-5.295v-3.029Zm-10.544-11.191c0 2.379.161 7.3 5.3 7.3 4.218 0 5.188-3.3 5.188-7.3 0-1.351-.1-4.161-1.026-5.511a4.946 4.946 0 0 0-4.539-2.057c-3.949.163-4.922 3.568-4.922 7.568ZM1333.011 491.444l-9.951 30.487a13.986 13.986 0 0 1-2.648 5.139c-1.944 2.108-3.836 2.217-6 2.27h-6v-6.6h2.918c1.353-.053 3.458-.053 3.458-2.051a7.626 7.626 0 0 0-.377-2l-8.432-27.248h8.865l4.647 20.217 4.653-20.217Z" style="fill:#ae002c;fill-rule:evenodd" transform="translate(-679.166 -360.686)"/><path d="M163.865 158.913V50.594h33.463v108.319h-33.463z" style="fill:#9fa0a0;fill-rule:evenodd"/></svg>